<?xml version="1.0" encoding="utf-8"?>
<!-- Generator: Adobe Illustrator 13.0.2, SVG Export Plug-In . SVG Version: 6.00 Build 14948)  -->
<!DOCTYPE svg PUBLIC "-//W3C//DTD SVG 1.1//EN" "http://www.w3.org/Graphics/SVG/1.1/DTD/svg11.dtd">
<svg version="1.1" id="Layer_1" xmlns="http://www.w3.org/2000/svg" xmlns:xlink="http://www.w3.org/1999/xlink" x="0px" y="0px"
	 width="1140px" height="1222.852px" viewBox="0 0 1140 1222.852" enable-background="new 0 0 1140 1222.852" xml:space="preserve">
<path fill="#3CAD6B" d="M142.792,103.869L406.307,6.083c0,0,35.693,94.769,159.693,94.769s156.303-89.24,156.303-89.24
	l268.484,93.728l130.372,413.221c0,0-86.18,64.083-216.562,53.041c0,0,17.683,539.171,26.526,563.483
	c0,0-349.139,112.697-733.637-17.676c0,0,70.76-267.997,50.871-555.265c0,0-133.737,24.926-228.758-39.16L142.792,103.869z"/>
<g>
	<g>
		<path fill="#FFFFFF" d="M700.637,406.351l-3.043-4.563l-5.322,1.902l1.141,8.746L700.637,406.351z M677.821,410.534l2.661-7.605
			l-2.661-3.423l-3.803,2.663L677.821,410.534z M722.312,421.942l-2.662-3.804l-4.944-1.9l-4.942,9.505l9.126-1.141L722.312,421.942
			z M765.663,491.53l3.802-7.985l-10.646-29.662l-12.929-12.548l-43.731,22.436l-7.605-31.942l-42.591-16.351l9.126-16.353
			l9.508-14.449l6.084-7.986l0.762-8.747l-8.367-6.465h-6.845l-0.761-3.423l-6.465-1.141l-1.141-20.534l12.17-15.972l-2.282-15.21
			l-22.815,15.971l-34.985-11.788l-7.985-23.958l-3.803,1.521l-4.184,14.07l-0.762,14.83l-7.224,2.664l-13.689-7.226l-1.141-5.323
			l7.605-5.324l1.141-6.465l-10.268-1.141l-14.45,15.212l-3.043,1.141l-7.224,5.322l-4.183,6.465l-5.324-10.267l2.282-6.465
			l14.831-7.225l-1.902-5.704l-11.408-3.802l-15.211-20.154l-9.126-2.662l-22.056,7.605l-9.887,14.45l4.563,25.098l-6.085,9.506
			l-7.986,26.239l-7.224-5.323L442.053,336l-14.83,5.704L415.435,363l4.563,24.717l-7.225,14.451l2.282,3.042l-3.423,5.705
			l-2.282,9.886l-2.281,9.507l0.38,6.464l-0.761,9.888l1.902,6.465l6.465,7.224l4.562,10.268l-8.366,13.31l-13.689,4.563
			l-10.268-3.423l-3.042-7.606l4.944-14.831l-11.029,8.367l-1.521,19.012l6.084,6.845l17.873,4.563l25.479-7.225l11.407-11.788
			l7.606,1.901l6.084-1.521l5.323,3.422l2.282-2.282l11.408-4.184l13.69,9.127l-8.747,52.097l-5.704,6.084l-44.872,7.605
			l-11.027,7.985l-3.422,11.028l3.803,7.225l20.154,4.183l15.211-0.381l17.492,9.126l4.943-2.281l1.521-14.07l-4.183-7.225
			l-17.492,5.704h-17.493l-13.69-0.381l2.282-9.507l20.154-7.985h19.014l19.394-10.647l25.098,9.506h33.463l7.606,10.647
			l15.21,11.028l23.578,7.605l25.857-6.844l6.846,7.225l26.238,9.506l18.253-1.52l9.507,12.548l30.041,7.225l27.76,5.324
			l3.803-5.324l-2.281-15.211l11.789-3.802l-2.663-11.789l-19.774-8.366l5.324-20.914l-0.76-25.859l-15.211-12.168l-28.141,5.704
			l-3.423-9.888l46.774-14.45L765.663,491.53z M487.97,471.662l-4.42,0.998l-4.278-10.695l9.127,1.854L487.97,471.662z
			 M491.868,451.222l-11.788,2.662l-3.803-12.549l4.183-3.422l-4.563-10.647l12.168-10.647l9.507,5.704L491.868,451.222z
			 M618.119,468.715l-12.169,1.14l9.506-18.253l4.944,0.001L618.119,468.715z"/>
	</g>
</g>
<polygon fill="#ED2024" points="507.46,378.971 519.628,330.297 533.318,324.212 540.924,328.775 546.248,333.338 559.177,338.663 
	568.303,343.226 576.668,335.62 655.385,370.604 667.934,382.394 664.512,395.322 649.301,418.139 632.188,429.167 615.456,451.602 
	605.95,469.855 599.105,477.46 586.175,500.276 564.88,527.276 543.966,550.473 537.881,556.938 506.319,556.938 483.883,548.191 
	475.136,539.064 483.883,488.869 491.868,492.291 507.079,486.967 531.037,475.559 528.374,467.193 515.446,461.109 
	494.149,474.038 490.727,469.095 493.77,447.8 500.615,412.435 531.037,413.195 538.642,405.59 522.291,399.125 534.839,390.379 
	534.078,380.492 508.98,384.675 "/>
<g>
	<g>
		<path fill-rule="evenodd" clip-rule="evenodd" d="M499.094,297.843c-0.315,0.252-1.203-0.069-1.134,0.567
			c-1.326,0.022-1.639-0.258-3.023-0.756c0.113-1.179-0.667-1.39-1.134-1.512c0.013-1.154-0.257-1.417-0.378-2.079
			c1.34-3.133,4.586-2.353,6.236-0.378c-0.117,0.974,0.247,1.484,0.189,2.834C499.271,297.268,498.833,296.837,499.094,297.843z"/>
		<path fill-rule="evenodd" clip-rule="evenodd" d="M600.196,319.386c9.281-1.043,1.83,12.194-1.512,3.969
			c-0.248-0.61,0.724-0.874-0.378-1.134C598.481,320.539,599.337,320.522,600.196,319.386z"/>
		<path fill-rule="evenodd" clip-rule="evenodd" d="M469.992,356.236c-1.049,9.357-14.381-2.316-8.315-6.803
			C465.648,349.846,466.937,354.945,469.992,356.236z"/>
		<path fill-rule="evenodd" clip-rule="evenodd" d="M640.07,379.292c-5.438,1.062-16.593,5.672-17.197-3.212
			C627.876,374.281,636.562,375.436,640.07,379.292z"/>
		<path fill-rule="evenodd" clip-rule="evenodd" d="M651.787,375.512c0.558,1.31,1.533,2.128,0.566,3.591
			c-1.935,0.624-3.223-0.389-3.969-1.512C648.39,375.987,649.332,375.111,651.787,375.512z"/>
		<path fill-rule="evenodd" clip-rule="evenodd" d="M469.803,384.583c0.806,1.904,0.727,3.575,0.756,6.425
			c-0.557,0.577-1.252,1.016-1.89,1.512c-0.938-0.195-1.655-0.612-2.646-0.756c-0.642-2.525-0.197-4.122-1.323-5.858
			C465.101,384.072,467.72,383.605,469.803,384.583z"/>
		<path fill-rule="evenodd" clip-rule="evenodd" d="M455.629,392.142c-0.725,1.932,0.213,2.871,0,5.292
			c-0.875,0.764-1.528,1.748-3.402,1.512C448.912,396.534,451.226,385.888,455.629,392.142z"/>
		<path fill-rule="evenodd" clip-rule="evenodd" d="M650.653,396.11c-2.31,7.643-8.889,11.017-12.095,17.764
			c-1.488,0.85-2.934-0.081-3.591-1.134c0.6-4.055,4.01-7.429,6.804-10.771C643.837,399.496,647.11,392.737,650.653,396.11z"/>
		<path fill-rule="evenodd" clip-rule="evenodd" d="M689.582,410.662c-4.754-11.28,12.521-17.252,14.74-5.292
			C703.406,411.997,690.46,423.487,689.582,410.662z M695.251,406.693c0.674,0.442-0.1,1.316,0.378,2.079
			C699.029,407.858,696.801,401.992,695.251,406.693z"/>
		<path fill-rule="evenodd" clip-rule="evenodd" d="M630.433,416.709C637.977,411.566,633.972,425.093,630.433,416.709
			L630.433,416.709z"/>
		<path fill-rule="evenodd" clip-rule="evenodd" d="M665.015,437.307c-0.355,4.173,2.405,10.125,0.189,13.229
			c-6.498-0.225-3.174-9.121-3.969-13.795C662.982,436.383,663.891,436.408,665.015,437.307z"/>
		<path fill-rule="evenodd" clip-rule="evenodd" d="M488.133,513.654c-0.023-0.7-0.275-0.476-0.756-0.378
			c0.821-1.308,2.512-1.227,3.59-1.134c0.995,2.169,2.048,5.362-0.756,6.236c-1.178,0.083-1.953-0.472-2.834-1.134
			c-0.29-1.582-0.772-2.481-0.378-3.968C487.572,513.629,487.53,513.425,488.133,513.654z"/>
		<path fill-rule="evenodd" clip-rule="evenodd" d="M490.779,525.937c-0.696-0.003-0.835,0.551-1.134,0.945
			c-1.271-0.095-2.495,0.543-3.59-0.378c0.328-0.892-0.921-1.681-1.134-2.646c0.237-0.405,1.003-1.714,0.756-2.457
			C488.989,519.063,490.704,523.26,490.779,525.937z"/>
		<path fill-rule="evenodd" clip-rule="evenodd" d="M519.692,266.284c0.474-0.367,1.041,0.112,1.323-0.189
			c0.256,0.914,0.677,0.488,1.512,0.756c0.457,1.118,1.337,1.812,2.646,2.079c0.623,1.419,1.718,4.078,3.591,4.536
			c1.075,1.13,0.807,3.603,2.457,4.157c1.972,11.186,18.167,7.011,20.599,17.008c1.276,9.284-8.51,11.152-16.063,12.473
			c0.038,1.861-0.648,3.143-1.512,4.535c0.692,2.521,2.763,3.663,3.59,6.047c0.294-5.409,4.529-13.02,11.527-10.583
			c0.621-0.703,1.061-1.585,1.323-2.646c1.281-0.482,2.145-1.383,2.268-3.024c0.982-0.959,2.887-1.83,2.834-3.212
			c5.386-4.25,10.605-9.451,18.52-7.181c3.871,1.688,4.685,6.632,4.346,10.583c-0.647,2.054-4.789,3.567-6.803,5.48
			c-1.273-0.402-2.135,0.931-3.023,1.512c2.515,2.209,4.621,4.828,6.803,7.37c0.638-0.306,1.902-0.62,2.646,0
			c4.626,1.209,14.652,0.763,8.504-7.748c-1.004-8.867,0.25-18.562,6.047-23.244c-0.206-1.277,0.926-1.215,0.945-2.268
			c0.38,0.788,0.703-0.478,0.944-0.945c3.626-2.334,8.507-0.937,9.071,2.834c-1.332,1.042,0.621,3.44-0.945,4.725
			c0.105,0.427,0.295-0.229,0.567,0.189c-0.478,0.525,0.206,1.603-0.756,1.89c1.204,4.46,2.315,10.101,5.291,14.929
			c0.559-0.475,0.167,0.839,0.756,1.701c5.552,2.338,12.721,1.719,17.386,3.401c3.592,1.42,8.925,2.954,12.095,5.103
			c0.688,0.059,1.229-0.03,1.7-0.189c0.002,0.503,0.526,0.482,0.756,0.756c5.723-2.121,10.169-6.017,15.118-9.071
			c4.186-3.707,12.715-11.353,14.93-1.323c-1.109,2.438,1.087,6.653-0.756,9.638c1.174,2.026-1.636,4.695-0.756,6.992
			c-0.656,0.604-0.924,1.596-1.89,1.89c-2.635,5.806-7.175,9.708-10.772,14.551c0.795,1.149-0.358,2.761,0.756,3.59
			c-0.268,3.143-0.824,6.078-0.378,9.827c-0.712,0.358-0.574,1.567-0.566,2.646c4.351-1.219,6.553,0.89,8.692,3.779
			c4.087-1.037,7.291,1.501,8.693,4.347c4.752,0.878,7.839,8.054,6.425,12.851c0.056,0.394,0.512-0.281,0.567,0.378
			c-2.125,3.985-4.516,7.705-8.882,9.449c-2.461,12.126-11.067,17.376-16.819,25.89c1.71,1.186,2.941,1.891,5.292,1.89
			c0,0.252,0,0.504,0,0.756c4.638,1.536,8.992,3.354,12.85,5.669c7.481,3.014,17.39,4.367,24.757,8.882
			c1.488,9.748,5.62,20.309,6.425,31.181c11.567-6.189,25.362-12.433,35.905-20.788c5.418-4.662,12.414,1.793,15.308,6.803
			c0.058,0.257,0.473,0.157,0.756,0.189c1.366,3.295,4.215,5.108,4.913,9.071c1.038,1.103,2.27,2.014,2.457,3.968
			c6.267,7.222,8.872,19.794,9.07,29.858c-1.586,0.906-2.945,2.75-4.913,3.023c0.123,0.192,0.435,0.195,0.378,0.567
			c-2.595,1.882-8.056,2.899-10.961,3.213c-1.81,0.675-5.729,1.225-8.314,0.945c-19.117,1.847-35.891,8.297-53.292,12.472
			c-4.234,1.461-9.936,3-13.039,5.669c1.514,5.919,7.102,1.466,10.394,0.567c5.36-1.464,11.078-3.683,16.63-2.457
			c15.531,1.387,19.408,16.911,21.544,30.236c1.161,7.247-3.837,13.011-3.213,20.788c-0.962,0.361-1.097,1.549-2.079,1.89
			c0.136,2.922-0.779,4.574-1.512,6.614c6.317,2.161,15.927,5.601,19.465,10.016c1.281,2.405,3.481,5.479,2.457,8.693
			c3.275,7.721-3.848,10.406-10.395,9.449c1.967,3.946,1.914,11.535,0.756,15.307c0.614,4.68-1.09,7.77-5.669,8.315
			c-0.375-0.436,0.048-0.21,0.189-0.567c-11.249-2.283-28.605-8.415-40.441-10.205c-2.62,0.139-5.798-0.68-8.314-0.756
			c-1.506-0.729-4.083-1.56-7.182-1.7c-4.089-2.696-9.963-5.151-11.339-9.449c-0.763-1.905-1.654-2.93-1.512-4.914
			c-0.164-0.285-0.282,0.052-0.756-0.189c-11.6,4.062-26.578,1.589-37.039-3.212c-3.752-3.095-8.395-6.28-11.339-11.15
			c-0.28,0.16-0.273,0.608-0.378,0.945c-0.989-0.296-1.005,0.381-1.512,0.567c-4.314-0.718-10.325,3.26-14.551,2.646
			c-2.466-0.297-6.813-0.007-10.583,1.134c-9.41-2.169-19.217-2.976-26.457-9.071c-6.749-4.483-16.096-10.968-19.465-19.086
			c-0.262-0.042-0.976-0.12-1.512-0.378c-1.033,1.627-3.549,0.13-4.157,1.89c-4.488-0.325-8.069,1.33-13.795,0.945
			c-0.142-0.357-0.564-0.131-0.189-0.567c-13.4-0.3-27.403-5.569-37.984-11.906c-4.737,6.754-15.96,9.882-24.378,10.583
			c-0.26-0.189,0.081-0.312-0.378-0.567c-2.268,1.08-3.682-0.542-5.48,0.567c-3.891-0.539-8.983,0.568-12.472,0.567
			c-6.698,2.543-13.787,4.726-16.252,9.638c1.343,1.062,3.28,0.679,4.535,1.701c0.427-0.106-0.229-0.295,0.189-0.567
			c4.122,2.077,11.418,0.545,16.063,1.512c1.732,0.361,5.426,1.873,6.236-0.945c6.286-5.704,21.06-11.25,25.323-1.701
			c0.668-0.167,0.974,0.485,1.134-0.189c0.513,0.18,0.707,0.68,1.134,0.945c2.786-0.956,9.198-1.446,8.693,4.535
			c-2.37,1.167-5.303,0.327-7.748,0.567c-0.192,0.123-0.196,0.435-0.567,0.378c0.24,0.675,0.616,0.498,1.323,0.378
			c-0.136,0.954,1.153,0.485,0.945,1.512c1.23-0.733,1.908-0.207,3.401-0.378c0.196,0.434,0.391,0.87,0.756,1.134
			c-0.169,3.043-4.01,2.415-5.48,4.157c0.139,0.492,0.899,0.361,0.945,0.945c2.171-1.692,4.724,0.464,5.48,2.834
			c0.162,5.463-6.281,2.198-10.016,3.779c-0.472,1.204-1.022,3.16-1.89,3.969c-4.749,2.282-10.077,0.719-13.417-0.189
			c-0.253-0.125-0.352-0.404-0.378-0.756c-0.534-0.156-0.489,0.266-0.945,0.189c-2.133-1.249-4.692-2.331-6.047-3.78
			c-5.712-6.107-18.66-0.882-27.59-4.535c-3.648,0.067-7.182-2.11-11.527-2.835c-3.711-3.348-9.307-6.528-7.37-11.716
			c-0.181-4.926,3.928-9.525,6.425-11.716c0.27-0.714,1.553-1.776,2.835-2.079c0.247-2.323,3.866-4.484,6.992-4.535
			c3.048-1.723,8.486-1.906,11.149-3.402c13.507-2.257,26.369-2.246,38.74-7.937c-4.625-6.858-1.034-13.592,1.512-20.787
			c-0.042-0.272-0.564-0.066-0.567-0.378c1.121-4.523,0.738-9.769,3.591-13.606c-0.732-3.236,1.424-6.907,1.89-9.26
			c-0.676-1.188,0.508-2.917,1.134-3.969c-0.401-2.379,0.729-4.625,0.567-6.425c-2.707-1.227-3.699-2.782-6.614-3.024
			c0.032-1.04-0.898-1.118-1.512-1.512c-1.265,0.906-2.91,0.427-4.158,1.134c0.25,0.642-1.352,1.023-0.945,1.701
			c-2.575,1.221-5.026-0.252-6.803-0.378c-0.141,0.932-2.292,2.115-2.079,3.402c-1.041-0.159-1.263,0.5-1.512,1.134
			c-1.425,0.495-2.866-0.848-3.023-0.378c-1.247-1.273-1.434-3.606-3.024-4.536c-2.567,1.248-4.482,4.177-7.181,3.213
			c-0.324-1.081-1.642-1.909-2.268-3.213c-2.453,1.366-4.769,3.989-7.181,6.236c-6.988,6.51-16.561,8.57-26.268,11.716
			c-0.222,0.031-0.16,0.345-0.189,0.567c-1.252-0.079-4.702,0.197-6.614,0.756c-12.564-0.737-31.374-7.015-28.536-22.488
			c-0.263-0.556-0.653-0.059-0.945-0.756c0.131-0.374,0.504-0.504,0.945-0.567c-0.851-0.213,0.007-2.628,0.756-3.024
			c-1.169-1.436,0.802-2.468,0.189-3.968c1.236-1.592,2.368-2.712,2.268-4.914c1.366-0.276,1.409-2.438,2.646-2.268
			c1.354-3.433,3.623-5.952,6.614-7.748c8.114,0.883,9.058,10.739,2.834,15.307c0.198,1.335-1.079,2.191-1.512,2.268
			c-1.785,2.254-1.19,5.935,1.701,7.559c0.322,0.07,0.357-0.147,0.378-0.378c0.967,1.173,2.049,0.588,2.835,2.079
			c1.18-0.339,0.993,0.245,2.268,0c0.474-0.032,0.459,0.423,0.756,0.567c10.888,2.282,19.846-7.48,23.055-17.008
			c-1.063-1.834-2.201-3.594-3.212-5.48c-1.842,0.767-4.126,2.589-6.425,0.566c-0.455-2.987,0.333-3.701-0.756-6.425
			c-1.478,1.428-4.516-0.523-5.103-1.701c0.807-4.01,2.886-9.974,3.213-16.062c-1.161-0.587-2.478-1.034-3.591-2.079
			c-0.437-1.397,0.483-1.78,0.378-3.59c2.786-2.142,2.589-6.103,4.347-9.26c-1.154-0.862-2.476-1.556-2.457-3.591
			c0.516,0.165,1.249-2.288,1.134-2.834c0.407-0.226,0.93-0.904,1.323-0.567c1.127-3.772,3.337-7.965,5.102-11.717
			c-0.988-0.334-2.143-0.502-3.023-0.945c-1.708-6.472,7.353-10.56,7.937-16.441c-0.883-0.444-1.277-1.72-1.89-1.89
			c0.943-4.264-1.262-8.328-1.134-10.583c-0.48,0.168-0.102-0.663-0.756-0.756c0.689-1.733-0.27-1.908,0.378-3.024
			c-0.914-0.565-0.739-3.12,0-3.401c0.694-6.466,1.316-13.707,3.024-19.465c3.948-6.487,10.189-11.153,16.063-14.929
			c14.014-3.847,26.412,1.74,35.338,8.693c1.712-8.493,5.363-20.123,9.071-28.725c1.393-0.686,1.371-2.787,3.402-2.835
			c-0.165-1.906-2.507-3.078-1.323-5.291c-0.002-0.444-0.516,0.069-0.378,0.378c-2.421-8.142-3.229-14.726-0.378-24
			c-2.404-2.376-5.911-4.355-8.126-5.858c-0.453,0.339-1.335-0.329-1.512,0.567c-7.443-0.811-2.661-8.793,2.268-6.236
			c0.393,0.105,0.4,0.294,0.189,0.566c3.934,0.166,6.344,3.479,8.315,6.236c0.516,0.017,0.38-0.314,0.756,0
			c3.926-7.002,9.9-11.055,17.575-15.307c-2.117-4.911-8.612-4.909-9.638-10.394c0.305-0.053,0.325,0.179,0.567,0.189
			c1.359-4.889,6.597,1.03,8.504,1.701c1.885,2.192,3.713,5.08,4.914,7.37c0.661-0.465,2.085-1.042,2.646,0
			C509.415,261.181,515.823,262.218,519.692,266.284z M506.653,319.575c1.462,1.093,3.386,1.189,5.103,1.323
			c1.245-2,2.815-3.691,2.457-6.803c-2.438-3.321-3.995-15.069,2.457-10.772c1.941,3.288,3.354,7.104,7.37,8.315
			c-0.418,0.512,0.752,0.579,0.756,0.756c0.174-0.416,1.15-0.43,2.268-0.378c3.647-3.136,1.943-7.474-0.189-11.527
			c-7.276-3.02,4.457-7.742,4.346-2.457c0.042-0.147,0.005-0.373,0.189-0.378c1.064,1.45,1.996,4.424,4.725,3.023
			c3.131,1.018,6.168-1.067,8.126-2.457c4.33-3.493-4.025-7.159-7.37-6.425c-1.007-0.462-2.504-1.161-3.212-1.323
			c-7.997-10.003-12.933-23.886-28.914-22.488c-3.765,0.967-7.882,2.112-10.583,5.292c-2.804,0.595-5.521,5.36-7.937,6.992
			c-6.55,9.45-4.581,26.007,3.212,32.504c4.904-4.861,5.928,5.776,2.646,6.803c0.009,3.267-2.875,7.014-2.268,10.772
			c2.161-0.043,4.158-1.194,6.614-2.079c0.06-3.544,3.021-4.988,2.457-7.937c2.179-3.633-0.113-14.137,7.181-10.394
			c-0.148,0.131-0.42,1.055,0,1.134c0.045-0.205,0.311-0.454,0.378-0.189c0.791,1.155-0.354,4.652,0.378,5.858
			c-0.301,0.14,0.043,0.925-0.567,0.756c0-0.105-0.153-0.214-0.189,0C506.504,318.143,507.024,318.614,506.653,319.575z
			 M593.204,295.386c-0.573,2.469-0.964,6.773-0.945,9.071c0.717,1.974,0.803,4.125,1.513,6.803c1.57,0.431,1.977,2.87,2.834,3.402
			c0.039,3.567-2.642,5.539-5.103,7.181c2.095,4.638,3.937,11.945,2.079,17.575c0.391,0.492,0.907,0.856,1.701,0.945
			c5.579-14.835,31.936-6.419,25.322,11.149c8.412,5.394,18.051,7.486,25.89,11.339c0.629-0.34,0.521-0.996,0.378-1.701
			c4.705-3.625,2.9-11.013,3.402-16.819c-6.57-8.743,6.365-12.688,10.394-19.843c1.111-3.21,3.385-9.131,2.268-12.473
			c0.681-0.02,0.745-1.637,0.378-2.079c-1.404,1.475-3.73,3.375-5.67,4.158c-0.014,1.309-1.081,1.564-2.078,1.89
			c-0.042,0.357,0.213,0.417,0.188,0.756c-1.216-0.208-0.828,1.188-2.268,0.756c-3.749,2.352-5.958,6.159-9.07,7.937
			c-2.943,1.681-6.074-1.682-8.126-3.023c-2.455-1.605-6.826-2.771-10.016-4.536c-5.492-1.114-13.884-3.563-19.465-0.567
			c-0.635-0.625-0.906-1.614-2.457-1.323c-1.564-2.971-2.682-6.389-4.535-9.071c0.146-0.42,0.396-0.737,0.378-1.323
			c-2.207-1.837-1.238-6.406-1.89-9.071c-1.829-1.262-1.592-3.772-1.89-5.48C594.3,291.442,594.862,294.524,593.204,295.386z
			 M554.842,308.992c0.938-0.308,0.603,0.657,1.323,0.567c1.926-0.996,5.513-2.299,6.992-1.512
			c-1.382-2.214,1.232-4.121,3.024-5.292c2.716-0.554,7.942-1.456,7.181-6.236c-1.189-0.386-2.435,0.213-3.212-0.378
			C563.703,299.483,558.726,303.125,554.842,308.992z M546.149,314.095c0.144,1.151-0.188,1.827-1.134,1.89
			c-0.012,3.7-0.597,6.92-0.567,10.96c0.992-0.076,0.474,0.641,0.756,0.945c0.732,0.102,0.778-0.481,1.323-0.567
			c-0.081-1.34,0.076-2.443,0.945-2.834c-0.08-4.254,4.321-7.4,4.158-11.338C550.092,312.565,547.712,312.635,546.149,314.095z
			 M553.708,331.858c0.531-0.027,0.545,0.463,0.567,0.945c0.999-0.243,1.202,0.31,1.512,0.756c1.215-2.023,2.259-4.288,3.213-6.992
			c0.26-0.008,0.415,0.089,0.567,0.189c2.14-4.648,5.427-7.21,10.394-8.315C561.713,307.626,553.069,321.932,553.708,331.858z
			 M519.692,319.386c0.659,4.836-4.556,5.042-7.37,6.992c-3.176,0.112-4.865,0.589-7.559-0.567c0.134,0.954-0.581,1.057-0.378,2.079
			c-0.438-0.06-0.726,0.031-0.945,0.189c-0.926,3.081-3.546,5.475-5.858,6.047c-7.574,6.657-18.966-1.577-12.662-13.039
			c-0.989-0.777-1.537-2.996-2.646-3.024c0.443,0.995-0.63,2.527-1.323,2.457c-3.467,7.878-5.719,19.017-7.937,27.024
			c0.529,2.432,3.101,2.821,3.023,5.858c1.549,1.034,2.398,2.767,2.835,4.913c1.698-0.191,2.02-1.76,3.212-2.457
			c-2.488-0.536-3.796-2.251-5.292-3.779c-0.356-1.795-1.923-3.82-2.268-6.236c1.241-2.641,1.132-6.709,3.78-8.504
			c0.227-1.925-1.43-6.468,3.212-6.236c0.601,0.533,1.105,1.162,1.701,1.701c-0.936,5.221-1.486,9.835-0.756,14.362
			c0.806,0.202,0.997,1.019,1.512,1.512c12.502,0.805,16.358-13.543,29.103-10.96c1.19-9.709,8.103-19.452,18.708-18.709
			c-0.199-1.124-0.583-2.062-1.323-2.646C527.916,319.656,520.711,313.985,519.692,319.386z M563.157,337.717
			c0.783,0.979,1.355,2.535,2.457,2.646c1.759-1.138,1.35-3.596,3.402-4.157c0.06-0.444,0.298-0.709,0.189-1.323
			c3.28-2.377,7.056-3.825,10.394-6.425c2.937-0.555,5.989,4.362,2.268,6.047c-0.019,0.775,1.133,0.379,0.945,1.323
			c1.665-0.734,2.716,2.422,4.913,1.701C595.494,314.73,560.834,320.444,563.157,337.717z M490.401,323.354
			c0.551,0.278,0.551-0.845,0-0.567C490.401,322.977,490.401,323.166,490.401,323.354z M582.244,477.748
			c-0.331-1.88,0.943-5.158,3.59-5.291c2.486,1.974,1.138,3.973,0.756,7.37c1.718,0.252,4.459,1.018,6.614,1.89
			c2.542-4.127,5.37-9.546,10.016-11.717c-0.714-3.494,2.667-5.974,3.401-9.26c3.434-2.047,4.114-6.847,6.992-9.449
			c1.878-3.096,3.236-7.291,6.048-8.315c0.604-0.924,0.991-1.534,2.456-1.89c3.363-14.652,18.266-19.233,26.835-29.292
			c-0.289-0.601-0.066-0.832,0-1.512c5.441-6.086,10.348-12.708,15.307-19.276c-0.201-0.881,0.494-1.49,0-2.079
			c0.22-0.159,0.507-0.25,0.945-0.189c2.167-4.732-0.708-8.778-3.969-11.716c-18.035-10.52-38.977-16.94-58.582-25.701
			c-0.104-0.274,0.221-0.977-0.189-0.945c-6.61-3.121-16.954-6.23-23.244-9.638c-0.162,0.724-1.092,0.134-1.134-0.378
			c-0.828,0.315-1.57,0.539-2.079-0.189c-0.357,0.209-0.663,0.471-1.134,0.567c-1.626,10.093-16.876,6.769-18.898-1.323
			c-4.78,1.396-8.195-1.392-10.96-3.59c-6.313,0.786-6.961-4.521-6.803-8.693c-3.936-0.518-6.928-0.883-10.96-0.189
			c-1.614,1.982-4.655,2.033-4.536,6.047c-1.313,1.44-2.979,4.749-2.646,6.047c-5.007,14.479-4.558,29.491-9.26,43.842
			c6.789-0.378,9.363-5.299,15.307-6.236c-0.777-2.597,0.679-5.86,1.134-8.882c-0.731-0.214-0.678-1.212-0.945-1.89
			c0.477-0.701,1.434-1.781,2.457-1.323c0.854-1.603,1.948-2.965,2.646-4.724c0.395-0.298,1.255-0.131,1.701-0.378
			c0.527,2.559-0.69,4.796-0.945,7.181c6.042-0.01,4.021,8.996-0.945,4.536c-0.29,1.411-0.797,2.604-1.134,3.968
			c2.495,0.409,6.021,0.56,6.614,3.78c6.351,6.591-0.208,17.447-7.748,19.086c4.309,1.467,12.429,2.354,13.606,9.071
			c-0.79,9.449-12.957,8.876-20.032,9.071c-0.496,1.561-0.152,2.807-0.567,4.347c3.35,0.813,4.618,7.15-0.945,5.292
			c0.337,0.966-0.501,0.758-0.567,1.323c1.327,1.319-0.724,4.753-0.378,7.181c4.241,0.786,2.503,6.028-1.89,5.291
			c-1.537,3.213-0.457,12.482-3.591,13.04c-4.987,0.887-1.934-6.324-2.268-8.504c0.997-0.361,1.093-2.514,0.945-3.401
			c-0.788-0.095-0.833,0.552-1.701,0.378c-0.604-0.026-0.417-0.843-0.756-1.134c-1.716,4.495-1.989,10.229-3.402,14.551
			c-1.534,4.693-9.18,0.493-12.661,0.567c-1.114,3.638-1.644,6.561-1.89,10.394c-0.272-0.211-0.461-0.204-0.567,0.189
			c0.397,0.843,0.26,2.775-0.189,3.401c0.948,0.488,0.152,1.825,0.756,2.834c0.458-0.923,1.18-0.693,1.89-0.945
			c-1.024-0.477,1.052-1.478,1.512-1.134c1.579-2.157,4.629-4.792,6.992-4.913c4.883-5.817,15.728-7.745,22.866-3.969
			c1.884,2.067,6.478,2.614,5.48,5.858c2.558,1.851,2.037,5.802,2.646,8.882c-0.252,0-0.504,0-0.756,0
			c0.104,0.274-0.221,0.977,0.189,0.945c0.032-0.283-0.068-0.697,0.189-0.756c-2.167,8.035-13.741,8.073-21.166,12.095
			c-2.532,1.814-5.301,3.392-8.693,4.346c-3.812,3.512-11.76,3.737-15.685,0.945c-0.667,0.056,0.667,0.511,0,0.567
			c-0.654-0.606-0.804-1.715-1.89-1.89c-1.172,4.485-1.708,9.564-2.457,13.984c-0.26,0.008-0.415-0.089-0.567-0.189
			c-0.188,5.692-2.716,13.232-3.023,19.842c-1.088,3.528-2.454,8.632-2.834,12.851c4.878,6.966,15.114,9.839,21.354,14.551
			c0.092-0.224,0.202-0.429,0.378-0.567c8.069,1.872,14.095,2.85,22.11,3.969c1.15-0.297,3.121-1.008,3.968-0.378
			c0.03-0.223-0.032-0.537,0.189-0.567c0.871,0.363,1.116,0.236,2.079,0.567c3.806-1.895,8.289-0.199,11.527-3.591
			c7.958-12.318,19.803-19.827,29.292-31.37c2.252-4.254,5.324-6.019,7.748-10.772c-1.007,0.125-1.684-0.08-2.079-0.567
			c-1.135,0.795-2.368,0.289-3.591,0c-0.826,1.487-1.272,6.482-3.59,5.48c-2.094-0.905-0.528-5.183-2.835-6.047
			c-2.672-0.573-8.236-0.551-7.937-4.913c1.881-1.605,3.674-4.095,4.536-6.992c-1.988-1.561-4.082-2.224-4.158-4.347
			c1.598-2.864,3.778-0.631,6.047-0.378c0.258-0.452,0.534-2.135,1.512-2.457c-4.433-1.994-3.71-8.826,2.079-5.103
			c0.704-1.574,1.171-4.144,1.89-5.102c0.038-7.183,9.335-1,13.417-0.945C581.7,478.301,581.885,477.693,582.244,477.748z
			 M605.109,339.795c1.988-0.352,3.52,0.382,3.969,2.079c2.788,0.596,3.489,2.768,5.669,3.591
			C614.95,340.576,608.99,336.958,605.109,339.795z M469.046,352.079c-14.795-19.777-51.863-13.554-50.079,15.307
			c-0.534,0.028-0.263,0.848-0.756,1.323c0.623,1.055-0.129,2.212,0.756,3.401c-1.364,2.751,1.169,4.513,0.189,7.37
			c15.381-0.677,27.784-8.398,41.386-11.339c4.103-3.301,10.464-3.306,14.551-6.425
			C474.097,358.241,471.911,354.317,469.046,352.079z M601.896,343.575c0.994-0.104,1.537,1.013,2.269,0.567
			c-0.227-0.907-0.906-1.362-1.512-1.89C603.082,343.374,601.95,342.936,601.896,343.575z M498.149,350.756
			c-4.643,1.576-8.846,3.645-12.662,5.103c0,0.126,0,0.252,0,0.378c1.38,0.888,2.896,1.64,3.591,3.212
			c5.602-5.478,13.036-6.503,21.732-8.126c0.732-3.144,0.426-5.308,0.945-8.126C505.109,340.905,503.21,349.036,498.149,350.756z
			 M605.109,345.276c0.053-0.431-0.045-0.71-0.378-0.756C604.774,344.854,604.541,345.466,605.109,345.276z M605.299,344.898
			c2.493,2.23,6.668,2.781,9.26,4.913c0.219-1.73-1.368-1.656-1.701-2.834c-0.766,0.506-1.606-0.529-2.834-0.189
			C609.281,345.135,607.492,344.627,605.299,344.898z M492.102,363.417c7.209,9.135-6.249,8.395-10.016,12.472
			c2.12,2.717,8.776,8.818,0.945,9.827c0.5,1.39,1.84,1.939,2.835,2.834c3.782-1.635,6.267-4.567,10.771-5.48
			c0.459-1.989,1.108-3.611,1.323-6.047c1.601-0.47,1.264-2.372,3.023-2.457c-3.207-5.678,1.584-12.789,7.937-13.039
			c0.251-1.009,0.366-2.154,0.756-3.024c-0.04-0.212-0.21-0.294-0.378-0.378C503.538,359.663,497.367,360.651,492.102,363.417z
			 M652.354,366.252c2.325,0.699,3.605,2.442,5.67,3.402c0.918-2.506,3.276-5.081,1.89-8.693
			C657.035,360.381,653.241,362.685,652.354,366.252z M431.44,383.638c-0.092-0.223-0.202-0.428-0.378-0.567
			c-2.129,0.738-4.782,2.385-7.37,1.89c0.882,1.593,2.113,1.276,3.212,1.323c9.528,0.402,17.686-4.891,26.457-7.748
			c10.332-3.365,20.37-6.531,30.047-10.961c0.591,0.846,1.967-0.634,2.646-0.945c0.061-1.636-0.923-2.227-1.89-2.834
			c-8.701,0.974-14.307,7.542-22.677,8.315c-0.282,0.441,0.064,0.814-0.189,0.945c-2.851,1.097-6.773,3.516-10.016,2.457
			C444.344,379.068,438.76,382.24,431.44,383.638z M664.07,365.685c-1.071,3.624-3.299,7.172,1.701,7.937
			c2.756-1.294,2.635-5.622,2.456-8.882C666.121,364.335,665.794,365.708,664.07,365.685z M504.763,368.52
			c0.474,0.818-0.341,1.734,0,2.268c1.045-0.573,1.782-0.953,2.834-1.134c0.125-1.45,1-2.15,0.756-3.969
			C507.987,365.266,505.575,367.514,504.763,368.52z M669.739,377.402c1,0.89,1.19,2.589,1.89,3.779
			c2.49-3.016,5.099-6.126,3.591-10.771C672.543,371.193,671.679,375.267,669.739,377.402z M475.094,407.449
			c0-0.441,0-0.882,0-1.323c1.222,0.362,1.48-1.765,2.835-1.89c-1.641-2.094-1.419-4.175,0.189-6.047
			c-1.285-2.054-2.798-3.879-3.969-6.047c0.819-2.264,1.925-3.674,4.158-4.157c-3.647-2.601-3.058-8.024,1.89-7.748
			c-0.145-1.809-2.349-1.557-2.646-3.212c-8.594,1.664-15.24,6.386-22.677,6.992c-0.042,0.357,0.213,0.417,0.189,0.756
			c-8.961,2.612-15.758,5.888-24.756,7.748c0-0.189,0-0.378,0-0.566c-3.086,0.522-6.566,0.971-9.26-0.189
			c-1.726,2.576-6.212,7.156-5.48,9.071c5.273,4.227-3.589,11.078-3.969,17.008c2.729,5.209-2.206,9.039-2.834,14.551
			c1.135,0.417,1.538,0.562,2.079,1.701c-0.508-0.13-0.365,0.391-0.567,0.567c1.224,2.666-1.441,9.847-1.701,13.606
			c1.236,1.002,2.639,0.572,3.779,1.323c2.086,3.347-1.281,4.888,0.378,7.37c0.692-1.438,3.246,0.177,4.158,0.567
			c0.736,2.917,2.378,4.929,3.779,7.181c4.962-3.215,5.334,4.764,7.181,7.37c0.641-0.053,0.424-0.962,0.945-1.134
			c2.199-0.637,3.322,1.133,4.347,2.268c-0.533,1.496,0.599,3.294,0.756,4.724c2.192-0.779,3.775,0.411,6.047,1.323
			c2.84-2.792,5.753,0.199,7.181,2.457c0.613-1.51,1.863-2.539,3.59-3.591c3.222-0.139,3.58,3.722,5.669,5.292
			c1.604-2.194,3.086-7.001,6.992-3.969c0.446-2.381,3.538-4.043,6.047-3.59c5.646,0.933,10.173,5.829,16.63,7.559
			c1.434,2.706,4.524,2.981,5.858,5.48c8.668,0.619,14.592-4.097,20.788-7.37c-1.019-1.186-0.878-2.891-1.701-4.536
			c0.396-0.675,0.686-1.456,1.134-2.079c3.246,0.155,3.299,3.504,5.102,5.102c0.956-0.052,1.919-0.097,2.079-0.945
			c-1.446-1.686-4.237-7.14-0.756-7.559c2.745-0.33,3.456,4.252,4.346,5.858c0.848-0.286,1.952-0.316,2.646-0.756
			c-3.149-1.543-4.596-9.483,0.945-6.425c0.435-2.466-2.478-2.329-3.024-4.157c-16.105-5.271-22.05,13.153-34.394,16.441
			c-0.904-0.986-2.762-1.018-3.023-2.646c-4.742-3.51-11.591-3.958-14.929-8.126c-0.16-3.106,2.812-4.216,5.858-3.213
			c0.056-0.385,0.512-0.371,0.567-0.756c-1.202-0.556,0.071-1.794-0.189-2.268c-1.771-0.025-3.162-5.776-0.567-6.047
			c0.611-1.219-0.595-1.513-0.378-2.457c-2.809-0.716-6.257-8.306-0.378-7.937c-1.369-3.458-7.246-12.36,1.512-11.906
			c-0.439-1.779-1.61-3.575-3.402-3.401c-5.394,6.365-11.957,11.588-17.764,17.953c-6.63,4.75-18.6,3.335-20.599-4.347
			c-2.056-1.616-3.282-6.381-4.157-7.37c-0.987-6.667-5.741-12.346-7.748-17.386c-1.945,0.448-1.599,3.189-3.024,4.158
			c0.325,0.074,0.485-0.28,0.567,0c-0.321,0.435-0.511,1.001-0.945,1.323c-0.771-0.236-1.541-0.475-2.079-0.945
			c0.071-3.447,1.839-8.467,6.425-8.882c0.103-3.407,2.634-7.636,5.292-4.914c0.246-0.415,1.021,0.224,1.512,0.189
			c1.142-3.088,5.625-3.255,6.425,0.378c2.195-0.561,2.194-0.615,4.157,0c0.087,1.173,1.342,1.178,0.945,2.835
			c-0.39,0.095-1.415,0.054-1.512,0.756c4.396,3.024,5.582,9.424,11.338,8.882C459.689,420.243,467.531,413.946,475.094,407.449z
			 M456.763,424.835c-0.004-0.563,0.018-1.152-0.567-1.134C456.136,424.328,456.616,424.415,456.763,424.835z M487.377,404.425
			c-10.664,8.782-20.724,17.546-30.614,27.78c-0.057,0.371,0.255,0.375,0.378,0.566c-0.783,0.193-0.64,0.814-1.323,0.378
			c0.37,1.63-1.364,1.155-1.701,2.079c-0.996-0.117-1.168-0.443-1.701,0c-1.208-0.512-4.322-0.665-4.535-2.457
			c-0.926-0.163-2.637-0.118-1.89-1.323c-1.781-0.294-3.194-3.897-4.914-5.48c-2.522-1.677-6.199-4.704-6.803-8.315
			c0,0.315,0,0.63,0,0.945c-1.826,0.646-3.194,0.109-5.292-0.189c-0.403,0.855,0.424,0.923,0,1.89
			c2.562,4.877,5.706,11.547,7.748,17.386c0.315,0,0.63,0,0.945,0c0.385,1.496,2.017,2.619,1.323,4.536
			c0.678,0.354,1.637,1.493,0.945,2.079c1.785,0.826,2.707,4.076,6.236,3.78c3.591,2.232,5.497-2.502,9.26-3.402
			c5.123-5.437,10.496-11.621,15.118-16.441c3.923-2.321,6.924-6.849,10.205-10.771c2.638-3.155,7.492-6.426,8.882-8.126
			c1.152-1.41,1.688-4.334,3.59-4.536c6.007-0.637,9.097,7.757,14.74,5.48c0.8,1.264,4.161-0.415,5.669,0
			c-0.307-0.057-0.51,0.255-0.189,0.378c0.371-0.878,1.537-0.115,1.89,0.189c-0.086-1.111,1.011-0.304,1.323-1.323
			c6.033,0.591,13.335,1.461,18.52-0.945c1.111-3.837-3.602-4.355-6.803-3.402c-5.118-2.431-10.855,0.992-15.496-2.834
			c-1.675-2.476-1.512-5.903,1.323-6.992c4.576-1.252,8.27-2.174,12.662-3.023c0.54-1.243,1.873-1.402,3.023-1.323
			c2.399-1.483,3.807-4.533,3.78-7.37c-6.246-2.871-12.25,3.005-17.008,5.103c-4.629,1.358-14.332,3.432-13.417-3.779
			c-3.368,1.95-0.082,8.373-4.536,8.504C496.799,398.115,490.86,401.342,487.377,404.425z M502.685,384.016c0.252,0,0.504,0,0.756,0
			c0.135-0.668,0.19-0.664,0.378-1.512C503.151,382.719,502.492,382.941,502.685,384.016z M495.881,388.551
			c-4.847,1.898-7.309,6.298-14.362,5.48c0.636,1.947,2.247,2.918,3.401,4.346C489.509,395.876,493.567,391.868,495.881,388.551z
			 M528.763,398.567c0.034-0.412-0.155-0.601-0.567-0.567C528.066,398.508,528.587,398.365,528.763,398.567z M492.479,415.953
			c1.075,0.752,2.32,1.333,3.402,2.079c-0.102-1.28,0.989-1.689,0.189-2.646c0.943-0.471,0.695-1.151,0.756-2.646
			c-0.47,0.029-0.585-0.297-0.945-0.378C494.889,413.701,493.06,414.203,492.479,415.953z M514.212,435.229
			c0.44-1.555,1.728-3.263,0.756-5.103c1.201-0.52,0.737-1.751,1.323-2.646c0.111,0.168,0.397,1.078,0.567,0.567
			c-1.112-1.65-0.021-3.309,0-5.292c-1.948-0.448-3.356-1.272-2.646-3.968c0.923-1.068,2.792-0.19,3.969-1.134
			c-0.068-0.823-0.029-0.869-0.189-1.323c-0.662,0.661-2.241,0.405-3.024,0.945c-0.104-0.275,0.221-0.977-0.189-0.945
			c0.132,0.635-0.388,0.619-0.567,0.945c-3.803-0.417-7.858,0.198-11.527-1.134c-0.645,4.768-1.583,7.786-1.89,12.662
			c4.389,0.776,11.413-1.178,12.284,3.59c0.091,1.843-2.09,2.831-1.323,5.103c0.964-0.738,2.853-1.554,2.834-2.646
			C514.55,435.062,514.38,435.145,514.212,435.229z M631.944,435.606c0.181,0.352-0.566,0.632,0,0.756
			C631.999,436.246,632.414,435.635,631.944,435.606z M580.165,579.229c3.345-3.242,3.684-8.892,8.693-10.961
			c6.945-7.108,20.018,3.595,18.331,9.26c0.55,0.164,0.212,0.283,0.188,0.756c0.854-0.343,1.183-1.211,2.079-1.512
			c4.29-18.111,3.805-31.179,6.236-49.134c0.888-6.56,0.822-17.677,0.378-22.11c0.493-0.325-0.267-0.979,0-1.701
			c-1.255-0.383-2.066-1.209-3.591-1.323c-0.559-0.89-0.711-2.187-1.134-3.212c0.682-1.082,1.318-2.209,2.457-2.834
			c1.858,0.757,3.92,0.278,4.347,2.268c2.26,0.001,2.499,2.624,4.346,2.457c3.87,1.057,9.283,11.42,0.756,6.992
			c-2.25,10.879-2.32,27.758-3.59,37.984c0.455,2.271-0.613,5.203-0.945,7.181c0.904,2.938-1.693,7.553-0.944,11.149
			c-2.083,3.739-1.201,7.359-3.024,10.96c2.177,6.694,7.564,9.615,11.717,13.417c13.76,6.292,27.861,5.426,41.575,0.378
			c1.349-0.414,1.421-2.106,2.646-2.646c0.057,0.372-0.255,0.375-0.378,0.567c4.306-2.796,5.499-8.432,8.504-12.095
			c0.152-2.669,4.913-7.325,6.614-2.079c-0.341,3.186-0.077,7.008-2.835,7.748c-2.36,6.869-8.001,13.015-14.74,15.496
			c-0.175,2.058,0.67,3.305,0.756,4.914c0.253-0.24,0.777,0.851,0.756,1.512c5.449,3.49,10.829,3.938,17.008,5.858
			c7.462,0.294,16.906,2.215,25.323,4.914c0.186-3.687,0.093-9.058,4.157-10.394c1.375,0.714,2.808,1.693,2.646,3.401
			c-0.318,2.713-4.739,10.225,1.89,9.071c0.743-2.864-0.704-7.569,2.269-8.882c4.776-2.109,2.797,6.759,2.268,10.394
			c6.344,2.705,7.343-5.154,5.858-10.205c0.87-2.766-1.566-6.246-2.835-6.425c-2.257-3.022-7.321-2.95-10.583-4.535
			c-5.707,0.164-10.154,2.33-16.252,2.834c-0.399,1.293-2.724,0.448-3.779,0.567c0.011-0.241,0.242-0.262,0.189-0.567
			c-2.854-0.077-2.463-2.055-4.158-3.212c1.266-6.91,8.456-12.095,11.149-17.764c6.417-10.912,16.229-37.82-3.968-43.276
			c-0.075-0.325,0.28-0.484,0-0.567c-5.087-0.622-10.492,2.217-15.686,3.591c-4.363,2.258-7.806,4.306-12.283,5.48
			c-1.674-0.924-1.582-2.644-1.323-4.346c3.089-2.42,7.562-5.016,11.717-6.992c0.224-0.236-0.746-0.882-0.378-1.89
			c-0.931-0.24-1.064-0.86-0.378-1.512c-0.722,0.154-0.731-0.402-0.945-0.756c0.778,0.088-0.147-0.475,0.378-0.756
			c-3.646-5.038-7.127-16.639-11.527-22.677c-4.364-1.036-9.285-1.202-13.229-3.59c-0.008,0.26,0.09,0.415,0.189,0.567
			c-2.264-1.209-5.715-0.709-7.748-1.512c-0.703-1.945-2.457-1.912-1.89-5.292c2.266-3.623,9.732,0.673,13.039,1.701
			c10.152,2.004,27.25,6.07,35.149-2.834c-12.535-0.127-23.257,1.561-33.448-4.157c-5.749-1.501-11.991-6.145-12.851-11.906
			c-3.756-4.684-3.806-11.421-4.535-16.819c-0.539-0.291-1.643-1.287-2.835-1.134c-0.104-0.275,0.221-0.977-0.188-0.945
			c-0.514,0.622-0.85-0.524-1.323-0.567c-0.465-1.962-0.643-2.048-0.567-4.536c1.256-2.07,6.857-1.539,9.26-0.756
			c12.163-0.565,21.759,2.713,33.071,3.023c5.19,1.937,10.704,1.544,16.252,1.323c-0.729-6.123-3.026-9.546-2.835-15.874
			c-1.355-1.341-1.234-5.955-3.023-7.938c-8.073-2.434-14.146-5.094-22.299-8.126c-4.845-1.801-10.972-5.297-15.874-5.48
			c-3.32-0.124-7.386,5.127-11.339,6.992c-9.757,4.603-16.396,16.632-17.196,26.268c-0.701,1.163-0.775,1.785-0.757,3.59
			c-0.617-0.523-0.567,0.832-1.134,0.945c-0.169,0.862,0.315,1.071,0.378,1.701c-1.77,2.702-2.413,7.035-2.268,10.394
			c3.853,2.167,9.235,8.161,8.126,13.417c-7.531-3.865-11.886-14.087-22.11-8.882c-10.26,6.068-15.237,20.005-20.976,29.48
			c-2.975,3.917-7.368,11.623-9.827,16.063c-0.516-0.017-0.38,0.315-0.756,0c-9.825,12.335-20.882,22.556-31.559,33.26
			c-0.41,2.44-2.068,4.301-0.567,6.425c4.28-4.817,12.758-7.978,14.929,0.378c-0.249,3.522-2.156,7.804-4.725,10.394
			c0.523,0.358,1.044,0.72,1.512,1.134c1.159-0.101,1.101-1.419,2.268-1.512c-0.135-0.96,0.313-1.45,0.378-1.701
			c1.948-0.371,2.121-2.363,4.157-3.023c0-0.315,0-0.63,0-0.945c0.938-0.15,0.625-0.497,1.512-0.189
			c4.127-3.053,12.82-0.82,12.851,6.992c2.385,3.031-1.131,7.138-0.945,10.205c1.28,0.221,3.675,1.348,4.157,0
			C580.185,580.809,580.392,579.322,580.165,579.229z M478.307,429.748c1.607,3.369,3.485,6.467,5.669,9.26
			c-0.297,0.018-0.655-0.025-0.567,0.378c2.091,2.044-2.27,3.578-3.968,3.213c0.151,0.781-0.687,0.573-0.567,1.323
			c1.062,1.835,1.926,3.869,2.646,6.047c0.315,0.252,1.203-0.069,1.134,0.567c2.684-0.482,5.002-1.047,6.992-0.378
			c2.193-6.625,4.1-14.414,4.347-20.977c0.17-0.329,0.422-0.728,0.756-0.378c0.014-1.665-0.078-4.004,0.756-5.669
			c-2.161,0.561-4.836-0.72-5.292-3.023c-0.646-0.08-0.568,0.566-0.945,0.756c-0.371-0.259-0.12-1.14-0.756-1.134
			C485.408,422.348,481.819,426.099,478.307,429.748z M498.905,437.496c0.751,4.475-2.281,7.721-2.834,12.473
			c2.372,0.273,3.974,1.317,6.236,1.701c3.492-4.691,3.925-11.97,5.102-17.386C503.624,432.989,498.907,431.71,498.905,437.496z
			 M718.307,460.362c-3.676,0.672-7.432,4.349-12.851,4.914c-0.063,1.375,0.569,3.102,0,4.157c1.147,4.175,0.954,9.037,0,13.229
			c0.501,0.381,0.524,1.239,0.567,2.079c-1.807,6.752-2.531,10.503-7.938,14.929c-5.368,4.396-16.465,5.106-21.921,5.102
			c0.551,1.385,2.637,3.206,2.834,4.914c4.787-0.861,8.231-4.893,13.796-4.535c0.025-0.352,0.124-0.632,0.378-0.756
			c13.988-2.727,28.358-8.273,41.008-11.149c10.753-2.576,25.597,0.375,32.882-6.803c-8.993,1.663-14.817-6.73-9.827-14.551
			c-6.284-0.828-7.888-7.571-4.535-12.283c-6.646,0.19-13.702-6.212-10.016-13.229C734.983,452.146,725.846,455.582,718.307,460.362
			z M747.787,451.858c1.246,0.266,2.127,0.896,2.834,1.701c1.251,0.054,1.833-0.561,3.023-0.567
			C753.021,450.373,747.456,444.039,747.787,451.858z M616.826,455.26c0.256,0.06,0.361,0.269,0.756,0.189c0-0.252,0-0.504,0-0.756
			c-0.189,0-0.378,0-0.567,0C617.023,454.953,616.926,455.108,616.826,455.26z M488.133,455.071
			c-2.275,0.851-5.262,0.147-6.803,1.323c1.544,1.414,3.4,1.541,5.48,2.457C487.892,458.012,489.25,456.772,488.133,455.071z
			 M483.031,458.473c0.13-0.508-0.391-0.365-0.567-0.567C482.351,458.396,482.54,458.585,483.031,458.473z M650.842,458.851
			c-1.571,2.68-0.461,7.239,0.378,10.583c15.198,0.964,30.418,1.803,49.134,3.024c0.151-3.133-0.587-6.9-0.756-10.772
			C680.51,463.529,665.538,457.596,650.842,458.851z M609.645,466.977c2.377-0.637,3.222-0.386,6.048-0.567
			c0.42-1.073,0.059-1.802,0.566-2.835c-1.069-0.982-0.006-1.841,0.189-3.59C612.525,459.935,611.784,464.621,609.645,466.977z
			 M756.669,463.953c0.692,5.829,6.757-0.688,2.456-2.268C757.955,461.635,757.583,463.21,756.669,463.953z M483.976,467.543
			c0.715-0.273,0.363,0.519,0.945,0.378c-0.158-1.958,0.611-1.942,0.756-3.402c-0.544-0.022-1.237,0.104-1.512-0.188
			C483.333,465.395,483.73,466.008,483.976,467.543z M484.92,469.055c0.357-0.379-0.232-0.878-0.756-0.945
			C484.27,468.572,484.608,468.801,484.92,469.055z M383.629,469.433c0.315,0,0.63,0,0.945,0c0.039-0.543-0.048-0.96-0.378-1.134
			C384.028,468.698,383.621,468.858,383.629,469.433z M381.361,493.811c8.841,3.696,21.591,7.396,31.181,2.834
			c7.76-3.382,14.328-5,19.843-10.394c-1.583-1.926-1.869-4.386-3.024-6.425c-1.534,1.594-5.207-0.876-3.968-2.457
			c-1.441-1.456-1.468-4.327-3.212-5.48c-3.106,15.651-22.953,25.321-36.473,17.386c-7.313-4.292-7.333-14.047-1.701-19.465
			C375.941,474.331,377.271,488.473,381.361,493.811z M527.062,470.945c0.199-0.478-0.638-0.837-0.756-0.378
			C526.682,470.569,526.547,471.083,527.062,470.945z M766.873,480.016c-1.021-1.7-1.061-4.037-1.89-5.669
			C759.338,474.918,761.161,483.288,766.873,480.016z M668.039,476.425c-3.353-0.497-7.571-0.719-12.284-0.378
			c0.805,4.484,5.023,5.897,8.693,7.37c-0.027,0.223-0.337,0.428,0,0.567c9.938,4.083,23.045,2.257,34.771,3.212
			c0.242-0.702,0.772-1.117,1.134-1.701c-1.651-2.188-0.091-4.965-0.188-8.504c-2.347,0.044-4.598-0.461-6.992,0.378
			c-0.03-0.222,0.032-0.536-0.189-0.567c-4.131,0.818-10.177-0.612-13.417-0.756C675.611,477.418,672.042,475.859,668.039,476.425z
			 M572.794,503.827c2.374-0.307,4.555,0.611,6.425,2.079c0.403-2.07,2.379-1.977,1.701-4.347c0.723,0.25,1.701-1.391,1.323-2.268
			c2.872-4.046,6.018-9.294,8.881-14.362c-2.427,0.267-4.18,0.196-6.614,0.189c-0.14,1.561-1.106,2.296-1.89,3.213
			c-2.92,0.203-3.223-1.59-3.213-3.78c-2.35-0.932-4.172-0.976-6.803-1.701c-1.021,0.68-1.213,2.188-1.701,3.401
			c1.22,1.647,2.58,4.042,0.378,5.48c-0.923-0.022-1.991,0.102-2.646-0.189c-0.192,0.919-0.408,1.753-0.756,2.646
			c0.972,0.225,0.688,1.706,1.512,2.079c0.403,2.438-1.806,3.717-3.401,2.835c-0.237,1.307-2.462,3.082-0.945,4.346
			c0.628-0.497,1.732,0.387,2.268-0.378c-0.43-1.526,1.019-2.57,1.89-3.401c1.613,0.492,2.613,1.021,3.779,2.268
			C573.184,502.715,572.464,503.545,572.794,503.827z M620.605,516.299C621.157,517.325,620.065,514.828,620.605,516.299
			L620.605,516.299z M716.228,562.032c-1.953,6.336-2.677,12.878-6.992,16.441c0.074,1.499-1.579,3.13-1.322,4.913
			c-3,1.224-3.252,6.822-6.048,7.937c6.72-1.221,15.066-3.186,20.977-0.378c-2.484-5.828,6.059-6.511,6.047,0
			c-0.674,0.625-0.279,1.577-0.566,2.268c1.084,0.449,2.526,1.043,2.457,2.079c0.796-0.023,1.355-0.282,1.512-0.945
			c-2.077-1.942-2.267-8.74,1.322-7.748c3.128,0.865,1.749,5.958,2.646,8.126c0.686-0.072,2.03,0.069,2.269,0.756
			c0.708-0.282,0.693-0.434,1.322,0c0.15-0.482,1.085-0.75,1.323-0.567c1.788-10.94-12.867-14.356-21.544-16.063
			c-0.073-0.27-0.227-0.319,0-0.567c-5.497-1.36-0.726-8.43,0.945-9.449c3.131-6.941,4.071-17.27,5.291-23.811
			c-0.575-1.662-0.159-4.099-0.188-6.425c-1.216-0.926-1.474-3.537-1.323-5.103c-3.975-13.053-16.815-16.199-29.103-11.905
			c-0.836,2.072-5.094,1.183-6.425,3.401c0.359,1.55,0.886,2.787,0.756,3.969c7.457-2.439,15.245-0.11,20.977,4.157
			c2.836,3.171,5.261,7.318,6.803,12.284c-0.477,1.326,0.183,6.033-0.188,6.992C718.559,555.331,717.233,560.529,716.228,562.032z
			 M452.039,553.528c4.335,2.474,8.233-1.235,11.717,1.512c1.816-2.149,4.73-1.517,7.37-3.213c0.493-2.025,2.92-2.028,3.212-3.401
			c1.323,0.252,0.605-1.537,2.079-1.134c-0.151-0.656,0.282-0.727,0.189-1.323c-0.836,0.27-0.494-0.64-1.134-0.567
			C469.213,551.488,459.507,552.227,452.039,553.528z M449.015,554.473c0.406,0.412,1.064-0.353,1.323,0.378
			c0.106-0.544,0.137-0.328,0.378-0.945C450.027,553.973,449.538,554.239,449.015,554.473z M435.976,556.929
			c-0.125-0.462,0.918-0.69,0.378-0.945C436.352,556.319,435.293,556.532,435.976,556.929z M423.314,562.032
			c0.028-0.47,0.64-0.055,0.756,0c0.166-0.607-0.623-0.259-0.567-0.756c4.008-1.312,7.394-3.829,12.094-4.158
			c-6.976-0.932-15.761,3.844-20.409,8.126c0.209,1.186-2.432,2.574-1.701,3.591c-1.149,1.571-1.65,2.789-1.89,4.535
			c1.53,6.754,11.729,8.229,16.63,7.937c0.918,0.855,2.249,0.347,3.591,0.945c1.799-0.739,6.735-0.669,9.071,0.945
			c0.008-0.26-0.089-0.415-0.189-0.567c4.378,0.738,8.398,0.001,12.094-0.567c3.425,1.573,5.25,5.622,8.504,6.992
			c1.334,0.114,2.201,0.697,2.835,1.512c1.502-0.428,3.089,1.114,5.858,0.567c0.464-5.458,0.849-13.739-1.512-18.142
			c-0.021,0.23-0.056,0.448-0.378,0.378c-2.704-1.966-7.071-0.013-10.016,1.89c0.146,0.042,0.373,0.005,0.378,0.189
			c-1.833,0.719-4.939,6.04-7.748,4.536c-0.339,0.548-1.19,0.785-1.701,0.189c-0.735,0.713-2.695,0.203-3.212,1.134
			c0-0.189,0-0.378,0-0.567c-0.534,0.097-0.803,0.457-1.323,0.567c-0.836-0.944-2.87,0.384-3.779-0.945
			c-4.225-0.52-8.952,0.737-13.606-1.134c-5.184,1.792-12.168-1.513-12.85-7.937c0.753-1.47,1.556-3.467,3.59-4.158
			c0.241-1.208,0.726-2.172,2.079-2.268c-0.011-0.9,1.02-1.529,1.701-1.134c-0.371-1.082,0.998-1.671,1.701-2.268
			C423.389,561.79,423.034,561.949,423.314,562.032z M547.661,562.41c0.582,1.749,1.861,2.8,3.024,3.968
			c0.714-1.539,2.108-3.334,2.268-5.48C550.921,559.779,548.919,562.164,547.661,562.41z M571.661,578.851
			c-0.758-3.797,1.607-8.166-3.023-10.016c-1.551,1.353-3.583,2.561-5.48,3.023c0.213,1.725-1.299,1.725-2.079,2.457
			C563.753,576.195,568.233,578.224,571.661,578.851z M589.425,570.536c-0.088-0.361,0.582-0.813-0.189-0.756
			C589.268,570.062,589.168,570.477,589.425,570.536z M586.59,581.874c2.502,0.66,7.264-1.08,10.394-0.945
			c0.19-0.622,0.327-0.552,0.756-0.189c-0.224-1.052,1.371-0.492,1.512-0.189c0.384-0.921,1.857-0.008,2.079-1.323
			c-1.094,0.001,0.536-0.759-0.189-0.945c-0.335-0.121-1.308-1.884-0.566-2.646c-1.065,0.362-0.604-0.722-0.945-1.701
			c-0.984-0.018-1.988-0.83-1.7-1.512c-2.072-0.587-3.905-0.579-5.48,0c0.147,0.042,0.22,0.158,0.188,0.378
			C588.825,573.938,587.588,579.649,586.59,581.874z M657.456,593.402c0.412,0.034,0.602-0.155,0.567-0.567
			C657.515,592.705,657.658,593.226,657.456,593.402z"/>
		<path fill-rule="evenodd" clip-rule="evenodd" d="M488.7,284.614c0.457-3.98,12.175-3.882,9.26,1.512
			c-6-1.307-7.183,4.037-9.071,7.937C483.886,294.667,485.205,285.382,488.7,284.614z"/>
		<path fill-rule="evenodd" clip-rule="evenodd" d="M611.913,366.819c1.511,0.315,2.268,1.386,3.023,2.457
			c-0.249,0.444-0.527,0.859-0.378,1.701c2.786,1.309,3.286-2.525,6.614-1.89c2.52,1.24,1.528,4.316-0.945,4.913
			c1.09,3.364-2.07,4.844-3.969,6.047c6.558,2.337,13.998,3.95,21.166,4.158c3.711,2.637,14.665-0.706,19.464,1.134
			c2.878,1.103,1.715,4.597-0.756,5.102c-14.401,1.474-29.771-1.103-42.52-4.913c0.056,0.917-0.732,1.339-0.944,2.457
			c0.698,1.317,1.79,2.242,3.023,3.023c0,0.693,0,1.386,0,2.079c-0.698,0.813-1.921,1.103-3.591,0.945
			c-0.185-0.76-0.93-0.96-1.322-1.512c-1.618,1.634-2.839,4.541-3.024,6.992c-3.172,3.138-11.818-1.333-12.661,4.914
			c-2.328,0.831-3.971-1.357-3.023-3.78c-0.512-1.125-2.525-0.75-3.401-1.512c-1.463,1.976-1.754,5.932-5.669,4.347
			c-0.708-1.923,0.058-4.082,1.323-5.103c-5.291-1.88-9.832-5.711-5.858-12.472c-1.357-0.768-2.536-0.698-3.59-1.89
			c0.321-2.495,2.489-3.01,4.913-2.079c0.865-1.088,1.204-2.702,1.701-4.157c-13.088-2.661-22.853-12.854-32.882-18.52
			c-3.909-3.083-7.248-6.735-10.96-10.016c0.056-0.385,0.378-0.503,0.567-0.756c-3.011-1.525-10.53-9.342-4.346-12.473
			c7.237,3.555,9.042,11.855,15.874,16.063c9.214,6.093,16.147,14.467,27.969,17.953c-1.993-4.822-4.232-9.067-5.858-13.795
			c0.698,0.067,0.79-0.47,0.945-0.945c7.266,0.531,10.611,7.503,17.197,8.693c3.598-9.229,3.652,3.884,9.638,2.646
			c1.021-1.247,0.931-3.604,1.891-4.913c0.906-0.334,1.384,0.042,2.456,0c1.154,2.278,0.492,4.226,0.189,6.992
			c1.739,0.339,3.224,0.934,4.913,1.323C610.129,368.504,610.989,367.695,611.913,366.819z M549.739,359.638
			C550.318,359.028,549.513,358.224,549.739,359.638L549.739,359.638z M584.322,372.11c8.549,2.171,18.409,4.526,27.401,6.614
			c1.338-1.12,1.016-3.197-0.944-3.402c-0.859,0.878-2.201,1.426-3.402,0.567c-0.314-0.252-0.062-1.07-0.378-1.323
			c-4.838-0.217-9.162-2.422-12.661-3.968c-0.046,2.103-2.875,0.963-3.401,1.701C590.564,368.658,581.327,367.199,584.322,372.11z
			 M584.889,382.882c2.526,0.205,4.121,1.237,4.346,4.536c-1.357,1.902-3.503,0.497-5.858,0c0.149,1.871,0.109,3.386,0.945,5.48
			c4.423-1.072,5.84,1.737,9.26,2.834c0.358-1.749,1.172-4.225,3.213-4.158c0.103,0.717,0.528,1.109,1.512,0.945
			c0.291,1.44,0.655,2.629,0,3.78c7.257,0.466,7.566-7.451,9.26-12.472c-7.396-1.328-13.63-4.011-21.921-4.725
			C585.594,380.563,584.891,381.372,584.889,382.882z"/>
		<path fill-rule="evenodd" clip-rule="evenodd" d="M584.889,462.441c-0.64,0.62-1.699,0.821-2.268,1.512
			c-1.159,0.151-1.538-0.478-2.079-0.945c-1.629,2.843-3.387,5.558-6.236,7.181c-0.024-2.538,2.466-5.79,3.401-9.071
			c-1.301-1.202-2.446-3.542-0.378-4.725c0.91,0.161,1.681,0.461,2.268,0.945c2.684-3.053,4.484-5.972,2.835-11.15
			c0.741,0.048,0.702-0.683,1.512-0.567c0.661,0.284,0.983,0.906,1.512,1.323c2.413-2.689,3.957-6.248,6.236-9.071
			c-0.79-1.358-2.311-3.133-0.945-4.535c1.117,0.206,2.094,0.552,2.835,1.134c0.419-2.663,6.564-7.084,6.992-10.394
			c0.289-2.236-1.403-6.976,2.457-3.78c0.112-1.525,1.347-1.929,1.512-3.401c-6.759-5.995,4.779-2.126,5.102-7.748
			c-1.178-0.712-2.521-1.259-3.212-2.457c-0.102-0.731,0.337-0.922,0.188-1.701c1.436-0.872,4.073-0.214,5.103,0.945
			c1.861-0.965,1.111-4.47,3.213-4.346c1.599-2.275,3.431-6.229,7.559-4.725c-0.062,3.97-3.953,4.11-3.401,8.693
			c-1.983,0.815-4.64,1.875-3.969,4.725c-1.976,0.732-2.726,2.691-3.779,4.346c1.991,1.175,0.315,5.182-1.701,3.78
			c-1.855,1.734-2.856,4.324-4.535,6.236c0.848,1.346,2.422,2.879,0.945,4.536c-0.845,0.103-2.562,0.251-3.023-0.567
			c-2.471,1.876-3.96,4.734-5.48,7.559c0.482,0.84,0.98,1.665,0.944,3.023c-0.579,0.429-0.947,1.068-1.512,1.512
			c-0.952,0.133-1.299-0.339-1.89-0.567c-2.389,3.218-4.035,7.177-6.803,10.016c-0.082,0.611,0.248,1.634-0.378,1.701
			c0.724,0.788,1.222,1.802,1.89,2.646c-0.275,3.066-3.344,2.692-4.347,0.756C582.315,458.018,583.834,458.723,584.889,462.441z
			 M600.385,430.126c0.461,0.182,0.626-0.849,0.378-0.756C600.761,429.746,600.247,429.61,600.385,430.126z"/>
		<path fill-rule="evenodd" clip-rule="evenodd" d="M531.409,494.756c0.368,0.046,1.582-0.681,2.835-0.378
			c3.709,2.329,2.079,7.611,3.401,10.772c-0.986,3.683,5.048,4.441,7.937,6.047c0.176-0.138,0.286-0.343,0.378-0.567
			c1.839,0.333,3.417-1.303,5.858-0.945c0.889,1.001,1.452,2.327,2.268,3.402c-0.357,0.714-0.714,1.428-1.134,2.079
			c-3.18,0.824-6.44,2.64-8.693,2.457c-0.84,0.737-1.294,0.755-2.646,1.323c-0.014,1.12-0.675,1.593-1.512,1.89
			c-0.702,2.532-2.877,5.555-1.134,8.126c-0.384,0.372-0.131,1.38-0.756,1.512c0.661,1.502-0.491,1.939-1.134,3.59
			c-1.264,0.108-1.861,0.32-3.023,0c0.026-0.576-0.259-1.236-0.756-0.945c-0.422-0.9-0.376-1.628-1.134-2.457
			c3.219-10.392-7.166-12.247-15.307-11.528c-0.053-0.305,0.179-0.325,0.189-0.567c-2.68,0.056-2.759-3.311-1.323-5.291
			c1.028,0.049,1.215-0.321,1.701-1.134c0.589-0.008,0.813,0.383,1.323,0c0.547,0.106-0.29,0.295-0.189,0.567
			c0.506,0.014,1.854-1.114,1.512-0.189c6.199,0.251,10.818-2.875,9.638-8.693c0.057-0.498-0.262-0.621-0.756-0.567
			c0.505-0.52,0.515-1.941-0.189-2.268c0.82-1.405-0.32-2.395,0.378-3.968c0.248-0.227,0.297-0.074,0.567,0
			C529.437,495.713,531.951,493.904,531.409,494.756z M532.354,514.977c1.003,0.654,2.095,1.509,2.079,2.646
			c1.025-0.27,0.636,0.876,1.701,0.567c0.596-1.734,1.957-2.705,3.023-3.968c-0.575,0.296-0.321-1.154-0.756-0.378
			c0.19,0.002,0.238,0.331,0,0.378c-1.396-0.683-2.604-1.554-3.779-2.457C533.961,513.007,533.24,513.666,532.354,514.977z"/>
		<path fill-rule="evenodd" clip-rule="evenodd" d="M483.409,535.764c-1.39-3.451-2.02-4.724,1.701-6.614
			c6.625,4.343,10.95,13.262,19.843,14.74c7.289,3.187,19.061,4.253,27.968,3.213c1.001,1.392,0.387,2.624-0.378,4.346
			C514.997,557.258,493.041,548.655,483.409,535.764z M495.503,540.866c0.353-0.335-0.253-0.547-0.378-0.945
			C494.761,540.268,495.287,540.561,495.503,540.866z M523.094,548.425C522.37,549.645,523.55,547.656,523.094,548.425
			L523.094,548.425z"/>
		<path fill-rule="evenodd" clip-rule="evenodd" d="M504.385,277.055c1.404-1.928,2.483-4.782,5.292-4.724
			c1.89-4.248,14.63,4.402,5.291,4.913c-4.37-3.574-4.716,6.325-9.071,4.725C504.604,281.494,504.216,279.538,504.385,277.055z"/>
		<path fill-rule="evenodd" clip-rule="evenodd" d="M519.503,282.725c0.718-0.624,0.762,0.637,1.701,0.378
			c0.002,1.134-0.139,2.758,0,3.779c-1.504,1.083-1.879,2.124-4.158,1.323c-0.404-0.884-0.826-0.902-1.701-1.512
			c0.664-0.028-0.129-1.198-0.378-0.756C513.796,283.657,517.257,279.9,519.503,282.725z"/>
		<path fill-rule="evenodd" clip-rule="evenodd" d="M627.976,336.771c-2.974-0.133-4.282-1.698-5.291-4.157
			C624.806,324.972,635.417,333.617,627.976,336.771z"/>
		<path fill-rule="evenodd" clip-rule="evenodd" d="M436.542,345.654c-5.849,5.398-10.616,11.675-10.205,21.543
			c-3.944,2.773-3.707-4.37-2.457-6.614c-0.083-0.233-0.242-0.388-0.567-0.378C425.316,353.577,429.266,345.911,436.542,345.654z"/>
		<path fill-rule="evenodd" clip-rule="evenodd" d="M426.905,370.032c0.559,2.324-1.48,1.811-2.457,2.646
			C420.711,371.184,424.622,367.165,426.905,370.032z"/>
		<path fill-rule="evenodd" clip-rule="evenodd" d="M646.495,377.024c2.17,2.72-1.154,5.006-3.59,3.023
			C642.064,376.921,644.167,375.844,646.495,377.024z"/>
		<path fill-rule="evenodd" clip-rule="evenodd" d="M550.685,430.882c-1.619-1.187-2.769-1.677-3.78-3.401
			c-0.144-1.467,0.825-1.821,1.701-2.268c0.955,0.628,2.183,0.625,3.213,1.512c0.935-1.71,2.042-3.249,2.646-5.292
			c-1.542-1.311-6.158-1.823-3.401-5.102c1.433,0.123,3.339-0.596,4.346,0.567c0.069-2.325,1.27-3.518,1.89-5.292
			c-1.6-1.204-5.118-4.041-2.457-6.047c1.544,0.535,2.859,1.298,4.158,2.079c1.126-1.779,2.105-4.309,3.023-6.803
			c-0.847-0.978-3.55,0.757-5.103-0.378c-0.752-2.113,1.025-2.388,1.512-3.78c1.585-0.115,3.131-0.27,4.913-0.189
			c0.816-0.758,1.246-1.904,1.701-3.023c-1.063-1.331-3.533-1.255-3.212-3.969c0.824,0.068,0.632-0.88,1.323-0.945
			c1.125,0.136,2.028,0.492,3.024,0.756c1.956-2.662,2.019-9.748,6.803-7.748c-0.134,3.203-2.565,5.408-3.212,8.693
			c4.206,0.416,1.539,6.256-1.89,3.78c-0.416,0.466-0.797,0.967-0.945,1.701c3.724,1.529,3.452,7.06-1.512,4.913
			c-1.121,2.471-2.124,5.058-3.213,7.56c3.701,0.815,2.021,6.377-1.512,4.913c-0.696,1.823-1.65,3.389-2.457,5.103
			c3.204,1.349,2.706,7.923-1.134,4.724c-0.821,1.485-1.238,2.893-1.701,4.347c1.534,0.575,2.115,1.654,2.646,2.834
			c-0.8,0.838-1.069,2.207-2.268,2.646c-0.975-0.377-1.271-0.429-2.079-0.756c-1.75,2.762-3.363,8.022-4.536,11.339
			c2.225,0.895,2.182,3.698,0,4.725c-0.635,0.005-1-0.26-1.323-0.567c-1.212,2.189-1.934,4.869-3.023,7.181
			c-1.183,0.301-0.991-0.772-2.079-0.567c-0.805-3.292,1.414-5.115,1.512-8.126c-1.262-1.018-1.917-1.731-2.457-3.212
			c0.208-0.548,0.548-0.964,0.756-1.512c1.274,0.31,1.763,0.243,2.834,0.756C548.168,438.115,548.08,435.342,550.685,430.882z"/>
		<path fill-rule="evenodd" clip-rule="evenodd" d="M473.015,398.378c5.05,7.208-12.344,13.292-17.575,12.473
			c-0.639-0.072-0.807,0.328-1.134,0.567c-1.134-0.404-3.059-0.619-4.158-1.134c-0.156-0.534,0.267-0.49,0.189-0.945
			c-0.599,0.22-0.772-0.061-0.945,0.756c-2.017-0.755-3.472-2.071-5.103-3.213c0.136-1.28,0.018-1.641,0-3.023
			c5.342-3.334,11.19,5.205,17.575-0.756c0.593,0.129,0.772-0.022,0.945,0.189C466.554,401.981,468.534,398.708,473.015,398.378z"/>
		<path fill-rule="evenodd" clip-rule="evenodd" d="M678.055,413.874c-0.55-0.332-1.089-0.675-1.89-0.756
			c-0.726-3.272-4.315-4.969-4.725-8.126c-0.905-6.986,8.404-11.077,10.771-3.968c1.079,3.925-1.865,7.361-1.512,10.394
			c-0.336,0.294-0.729,0.532-0.567,1.323C679.416,413.094,678.622,413.371,678.055,413.874z M676.543,406.882
			c1.084-1.309,0.555-2.956,0.188-4.535c-0.188,0-0.378,0-0.566,0C675.072,403.743,674.614,406.073,676.543,406.882z"/>
		<path fill-rule="evenodd" clip-rule="evenodd" d="M706.023,422.378c0.444,0.004,0.556-0.325,1.134-0.189
			c2.755-7.639,13.839-12.608,18.708-3.779c1.288,9.792-10.835,11.911-19.275,10.771
			C705.556,427.143,704.374,424.603,706.023,422.378z M714.527,423.701c2.582-0.538,4.905-0.916,5.857-3.402
			C717.835,418.091,715.24,421.251,714.527,423.701z"/>
		<path fill-rule="evenodd" clip-rule="evenodd" d="M584.133,419.732c1.802,4.419,7.255,0.359,10.016-0.189
			c1.878-2.237,6.13-1.108,5.479,2.834c-1,0.26-1.422,1.097-1.89,1.89c-8.187,0.977-11.616,7.874-12.472,13.606
			c1.254,2.083,0.697,5.345-1.512,6.236c-4.02-1.179-5.162-3.647-4.914-7.748c-1.576-5.562-5.324-3.685-10.205-3.591
			c-2.505-1.66-3.882-4.157-1.701-6.425c5.456,1.323,12.516-4.048,7.37-10.961c0.509-0.836,0.257-1.661-0.378-2.268
			c0.204-2.063,1.421-3.114,2.457-4.347C583.761,407.561,580.24,417.762,584.133,419.732z M581.677,429.37
			c-0.667-0.412,0.781-1.821,0.945-2.646c-1.051,0.02-1.137,1.004-2.079,1.134c0,0.378,0,0.756,0,1.134
			C581.081,428.784,581.163,429.808,581.677,429.37z"/>
		<path fill-rule="evenodd" clip-rule="evenodd" d="M650.464,425.969c0.376,0.442,0.436,1.202,0.378,2.079
			c-3.704,1.779-7.608,4.476-9.827,8.315c-2.322,1.161-3.089,6.193-6.613,4.347c0.109-0.614-0.129-0.879-0.189-1.323
			c2.258-4.81,6.45-9.117,11.149-12.094C647.792,427.575,648.526,425.602,650.464,425.969z"/>
		<path fill-rule="evenodd" clip-rule="evenodd" d="M690.149,453.559c-4.535,0.494-4.513-3.912-3.969-7.37
			c-0.88-1.451-1.979-4.179-0.567-5.858c3.633-4.318,7.075,7.903,5.67,11.716C690.663,452.31,690.434,452.962,690.149,453.559z"/>
		<path fill-rule="evenodd" clip-rule="evenodd" d="M656.322,585.654C659.95,577.254,662.761,591.837,656.322,585.654
			L656.322,585.654z"/>
		<path fill-rule="evenodd" clip-rule="evenodd" d="M645.551,586.221c2.37-0.764,7.675-2.681,8.126,0.378
			c0.588,3.987-8.496,4.042-11.339,3.59c-3.559,0.994-7.638-0.835-10.394-2.457c-0.353,0.026-0.632,0.125-0.756,0.378
			c-2.067-1.621-4.754-3.914-5.103-7.37C631.837,582.722,638.698,586.876,645.551,586.221z"/>
		<g>
		</g>
	</g>
</g>
<g>
	<path fill="none" stroke="#FFFFFF" stroke-width="0.1646" stroke-linecap="round" stroke-linejoin="round" d="M406.307,6.083
		l-265.038,98.762L20.765,522.631c0,0,64.351,62.111,222.613,41.686"/>
	<path fill="none" stroke="#FFFFFF" stroke-width="0.1646" stroke-linecap="round" stroke-linejoin="round" d="M722.303,11.611
		l271.537,93.233l128.362,412.604c0,0-72.291,63.368-215.243,53.161"/>
	<path fill="none" stroke="#FFFFFF" stroke-width="0.1646" stroke-linecap="round" stroke-linejoin="round" d="M228.059,263.104
		c0,0,61.262,525.842-30.629,857.683c0,0,382.899,127.629,735.157,15.311c0,0-51.059-750.463-20.429-862.783"/>
</g>
</svg>
